<svg version="1.2" xmlns="http://www.w3.org/2000/svg" viewBox="0 0 200 200" width="120" height="120"><style>.a{fill:#dfdd61}.b{fill:#d92121}</style><path class="a" d="m24.2 169.8c-29-29.9-18.5-86.9 23.4-127.5 41.9-40.6 99.2-49.3 128.1-19.5 29 29.9 18.5 86.9-23.4 127.5-41.9 40.7-99.2 49.4-128.1 19.5z"/><path class="b" d="m45.4 55.7q0.2-0.2 0.6-0.6 0.3-0.4 0.8-1 0.8-1.1 1.4-1.6l0.6-0.9q0.9-0.2 1.9-0.4 1.2-0.2 2.3-0.5 2.4-0.5 3.5-1.7 2.9-0.3 8.4-1.7 0.2-0.1 1.1-1 0.8-0.8 1.5-0.8h0.5q0.2 0.1 0.6 0.1 0.2 0 1.1-0.3 0.7-0.1 1.7-0.7 0.5-0.2 0.9-0.3 0.5-0.1 1-0.3 1.2-0.3 1.7-0.3 0.5 0 0.9 0.1 0.6 0 1.4 0 0.8 0.3 1.2 0.3 0.6 0 0.9 0 0.6 0 1.3 0 0.7-0.2 1.6-0.3 1.7-0.2 3.8-0.6 4.4-1.1 6.4-1.1 0.9 0 2.5 0.4 0.8 0.1 1.4 0.2 0.5 0 1 0 0.7 0 2.1-0.6 0.6-0.2 1.1-0.3 0.5-0.1 0.9-0.1-0.1 0 4.6 1 1.1 0.6 2.7 0.6 0.9 0 1.8 0 1 0 2.1-0.3 1 0 2-0.1 1-0.1 2.1-0.1 1.1-0.1 2-0.1 0.9-0.1 1.8 0 0.5 0 0.6 0.1 3.1-0.1 5.9 0.8 2.5 0.9 5.1 2 1.2 0.6 2.4 1.3 1.1 0.7 2.3 1.2 2.4 1.3 5.1 1.7 0.8 0.6 2.1 1.4 1.3 0.9 2.8 1.7 3 1.4 5.5 2.7 2.6 1.1 4.7 2.2 2 1.1 3.5 2 1.5 0.9 2.7 1.7 8.9 6.3 10 14.5 0.1 0.8 0.1 1.4 0.2 0.6 0.2 1.1 0.1 0.9 0 1.4-0.2 1.2-1.5 2.6-1.9 1.9-2 2.2-0.5 0.9-2.6 4-0.6 0.8-1.6 1.6-1 0.7-2.3 1.6-1.2 0.8-2.8 1.7-1.5 0.9-3.4 1.8-0.9 0.3-1.8 0.6-0.9 0.4-1.8 0.7-0.9 0.4-1.8 0.8-0.8 0.4-1.7 0.7-5 2-6.1 3.8-0.4 1.4-1.4 4.1 1.3 0.8 2.4 1.5 1.1 0.6 2.4 1.4 1.2 0.8 2.3 1.5 1.3 0.7 2.5 1.5 5.2 3.8 5.2 9.1v1.2q-0.1 0.2-0.1 0.5 0 0.2-0.1 0.5-1.4 7.7-9.7 11.7-5.3 2.6-15.9 6.8-1 0.2-2.1 0.3-0.5 0.2-1.1 0.2-0.6 0-1.1 0.1h-2.6q-1.4 0-1.6 0.1-0.3 0.1-0.6 0.2-0.3 0-0.8 0.2-0.4 0.2-1 0.4-0.4 0.2-1 0.4-1.9 0.7-3.6 0.7-1.3 0-3.6-0.3-1.2-0.1-2.1-0.1-0.9-0.2-1.4-0.2-1.3 0-3.4 0.4-1.2 0.1-2.1 0.2-0.9 0-1.6 0-0.7 0-2-0.1-1.2-0.2-3-0.8-0.8-0.2-1.6-0.3-0.7-0.3-1.4-0.5-0.5-0.1-1.1-0.1-0.6-0.1-1-0.2-0.6 0.1-1.4 0.1-0.8 0-1.7 0-0.9-0.1-1.9-0.1-1 0-2.3-0.3-0.4 0-2-0.7-1.2-0.7-2.5-0.7-0.2 0-0.8 0-0.4 0-1 0.1-0.6 0.1-1.1 0.1-0.5 0-0.8 0-1.1 0-2-0.6-1.3-0.4-1.7-0.6-0.8-0.2-1.7-0.3-0.8-0.1-1.8-0.2-1.1-0.1-2.3-0.2-1.1-0.1-2.5-0.2 0-0.4-0.9-1.1 0.1-0.1 0.1-0.3 0-0.2 0.3-0.5 0-0.4 0.5-1.3 0.8-0.2 1.6-0.7 0.4-0.2 0.8-0.3 0.4-0.3 0.9-0.5 0.2-0.2 0.4-0.4 0.4-0.4 0.8-0.6 0.5-0.2 0.9-0.4 0.5-0.4 1.1-0.7 2.7-0.9 4.8-0.9 2.6 0 9.2 1.6 6.5 1.5 9.1 1.5 3.5 0 7.8-1 5.2-1.2 7.4-2.9 0.2-0.2 0.4-0.6 0.4-0.4 0.8-0.9 0.3-0.4 0.7-1 0.4-0.6 0.9-1.1 0.3-0.4 0.7-0.5 0.2-0.1 0.3-0.2 0.2-0.1 0.5-0.4 1.7-1.3 2.8-3 1.2-2.7 3.1-5.1 2.1-2.4 2.8-5.3 0.2-1-1.2-1.6-1.8-0.7-2.1-1-0.2-0.2 0-0.9 0.1-0.2-0.1-0.8 1.6-0.9 3.4-2 1.8-1.2 3.7-2.6 0.3-0.4 1.9-5.7 0.6-1.6 0.9-3.3 0.4-1.6 0.8-3.2 0.5-1.6 0.8-3.3 0.3-1.7 0.9-3.3 2.9-9.1 6.7-11.1 0.6 0 1.9-0.6 1.3-0.6 2.6-1.4 0.7-0.6 3.1-1 0.8 2.4 0.7 3.4-0.9 1.6-1.7 3.4-0.4 0.9-0.9 2-0.4 1-1 2.3-0.1 0.8-0.3 1.9-0.3 1-0.5 2.2-0.2 1.3-0.5 2.8-0.3 1.4-0.7 3-0.2 0.5-0.5 1-0.1 0.6-0.3 1.3-0.2 0.6-0.5 1.6-0.1 0.7-0.3 1.6l-0.1 1.2q1.8 0.2 2.5 0.3 0.4 0.1 0.6 0.1 0.4 0 0.5 0 1 0 2.6-0.9 0.6-0.4 1-0.7 0.6-0.2 0.9-0.4l0.7-0.3q3.7-2 6-2.9 2.4-0.9 3-1.4 1.8-1.4 3-3.4 1.2-2.1 1.7-5 0.2-1.8 0.4-4.4 0.2-2.6 0.6-6.1-0.5-0.7-1-1.1-0.7-0.6-2.5-0.8-1.9-0.1-2.5-0.8-0.2-0.2-0.7-0.7-0.3-0.6-0.9-1.1-0.4-0.3-1-0.5-0.6-0.3-1.1-0.7-0.6-0.3-1.4-0.6-0.7-0.5-1.5-0.9-0.2-0.4-0.9-1.1-0.2-0.2-0.5-0.4-0.4-0.3-0.8-0.8-0.5-0.1-0.9-0.3-0.5-0.3-1-0.5-0.6-0.2-1.3-0.6-0.5-0.3-1.3-0.7-0.6-1.1-2.3-2.6-0.9-0.4-3.2-0.4-1.5 0-2.7-0.8-1.6-1-2.1-1.2 0.1 0.1-1.8 0.1-0.9 0-4.8-2.8-4.2-3.1-5.6-3.5-4.2 0.1-8.3-0.9-3.9-1.1-7.9-1.1-0.1 0-3-0.9-0.9-0.4-7.2-0.4-1.1 0-2.2 0-1.1 0-2.3 0.1-1.1 0.1-2.2 0.2-1.2 0-2.3 0.1-0.4 0.2-1 0.3-0.5 0.1-1 0.2-0.6 0.1-1.4 0.2-0.7 0.1-1.5 0.2-0.9 0-2.3-0.3-0.8-0.1-1.4-0.1-0.5-0.1-1-0.1-1.2 0-2.7 0.8-1.6 0.9-2.2 1-0.5 0.1-1.2 0.2-0.7 0-1.5 0-0.8 0.2-1.7 0.4-0.9 0-2 0.2-0.1 0.1-0.6 0.1-0.4 0.2-0.8 0.3l-0.1 0.9q-0.1-0.1-3.1-0.1-0.5 0-1.8 0.6-0.6 0.2-1.1 0.4-0.4 0.3-0.7 0.4-0.5 0-1.1 0.1-0.4 0-1 0-0.5 0.2-1.3 0.4-0.8 0.2-1.7 0.5h-0.1l-0.9 1.8q-2.6 2-7.5 8-0.3 1.6-1.5 3.9-0.5 0.8-1.2 1.7-0.6 0.9-1.4 2-0.7 1.1-1.6 2.5-0.7 1.2-1.7 2.7-0.1 0.1-0.1 0.6 0 0.4-0.1 0.7-0.9 1.3-1.7 2.8-0.4 0.8-0.9 1.7-0.4 0.9-1 1.9 0 0-0.2 0.9-0.2 0.8-0.4 1.8-0.5 1.6-1.3 3.7-0.4 1.1-0.8 2.5-0.3 1.4-0.8 2.9-0.3 1.2-0.4 2.9 0 1.5 0.1 3.7 0.1 4.2 0.6 6.2 0.2 0.2 0.3 0.5 0.1 0.2 0.3 0.4 0.3 0.6 0.3 0.9-0.2 2.1 0.2 4.7 0.2 0.6 1.8 2 0.9 0.8 1.3 1.2 0.6 0.5 0.8 0.6v0.9q-0.2 0.9-3 2-3.2 1.3-4.1 1.3-1 0-2-0.4l-0.7-0.9q-0.5 0-0.6 0.1h-0.4q-0.5 0-2.2-2.3-0.4-0.6-0.8-1-0.3-0.5-0.5-0.9-0.3-0.4-0.4-0.6-0.1-0.2-0.2-0.4 0-0.3 0.2-1 0.1-1.7 0.4-2.6 0.1-0.4 0.1-0.2 0.2-1.2-0.6-2.3-0.7-0.9-0.4-2.3 0.1-1 0.6-3.1-0.3-0.8-0.3-3.1 0.5-0.7 1.4-2.4 0.1-0.2 0.1-0.6 0-0.3 0.1-0.8 0.1-0.8 0.3-1.3v-0.7q1-1.8 2.7-5.4 0.1-1.3 1-3.5 0.8-0.8 2.2-2.5 0.2-0.2 0.3-0.6 0.3-0.4 0.5-1 0.2-0.6 0.4-1 0.3-0.6 0.5-1.1 0.2-0.6 0.4-1.1 0.3-0.4 0.5-1 0.2-0.5 0.3-0.9 0.3-0.4 0.5-0.7 0.8-0.6 2.1-2.1 0.1-0.5 0.4-0.9 0.2-0.5 0.4-1 0.2-0.6 0.6-1.2 0.3-0.6 0.8-1.4 0.5-0.6 1.4-1.8 1.1-2.3 2.8-5.7 0.5-0.6 1.5-1.3 1.1-0.8 2.4-2 0.2-0.4 0.6-0.9 0.4-0.4 0.9-1 0.8-1.1 2-2.7zm88.5 55.7h-0.2l-0.1 0.1q-3.3 1.9-5.2 4.5-0.9 1.3-1.8 2.6-1 1.4-1.9 2.6-0.5 0.6-1.5 1.5-0.9 0.8-2.4 1.9-0.6 0.4-1.1 0.7-0.5 0.3-1.1 0.7-0.5 0.3-1.1 0.7-0.4 0.3-1 0.8-1.5 1.7-4.9 4.5-0.2 0.1-0.5 0.2-0.4 0-0.8 0.2-0.5 0.1-0.9 0.4-0.5 0.2-1 0.4-0.2 0.4-0.4 1.3-0.1 0.2-0.2 0.5-0.1 0.4-0.2 0.6 0.1 0.1 0.5 0.3 0.4 0.4 0.6 0.5 0.2 0.1 0.9 0.1 0.7 0 1.6 0.1 0.9 0.1 2.2 0.2 1.4 0 3.1 0 1.4 0 3.4 0.6 0.9 0.6 1.7 0.6 0.3 0.2 0.5 0.2 0.4 0 0.6 0.1 1.8 0.3 6 0.3 9.3 0 13.1-2.1 1-0.5 1.9-2.2 0.5-0.9 0.9-1.5 0.3-0.4 0.7-0.8l0.7-0.4q0.1-0.1 0.3-0.1 0.3-0.1 0.5-0.3 1.1-1.4 1.4-3.9 0.5-3.5-0.3-5.6-0.7-1.7-3.6-3.7-1.2-0.9-2.3-1.5-1-0.6-2.2-1.5-0.4-0.2-0.7-0.5-0.3-0.4-0.7-0.6-0.3-0.2-0.7-0.6-0.3-0.3-0.6-0.5-1.7-1.4-3.2-1.4z"/></svg>